<svg class="marks" width="279" height="255" version="1.1" xmlns="http://www.w3.org/2000/svg" xmlns:xlink="http://www.w3.org/1999/xlink"><g transform="translate(66,12)"><g class="mark-group"><g transform="translate(0,0)"><rect class="background" width="1" height="1" style="fill: none;"></rect><g class="mark-group root"><g transform="translate(0,0)"><rect class="background" width="200" height="200" style="fill: none;"></rect><g class="mark-group"><g transform="translate(0,200)"><rect class="background" width="0" height="0" style="pointer-events: none; fill: none;"></rect><g class="mark-rule" style="pointer-events: none;"><line transform="translate(0.5,-200)" x2="0" y2="200" style="fill: none; stroke: #000; stroke-opacity: 0.15; opacity: 1;"></line><line transform="translate(33.5,-200)" x2="0" y2="200" style="fill: none; stroke: #000; stroke-opacity: 0.15; opacity: 1;"></line><line transform="translate(67.5,-200)" x2="0" y2="200" style="fill: none; stroke: #000; stroke-opacity: 0.15; opacity: 1;"></line><line transform="translate(100.5,-200)" x2="0" y2="200" style="fill: none; stroke: #000; stroke-opacity: 0.15; opacity: 1;"></line><line transform="translate(133.5,-200)" x2="0" y2="200" style="fill: none; stroke: #000; stroke-opacity: 0.15; opacity: 1;"></line><line transform="translate(167.5,-200)" x2="0" y2="200" style="fill: none; stroke: #000; stroke-opacity: 0.15; opacity: 1;"></line><line transform="translate(200.5,-200)" x2="0" y2="200" style="fill: none; stroke: #000; stroke-opacity: 0.15; opacity: 1;"></line></g><g class="mark-rule" style="pointer-events: none;"><line transform="translate(0.5,0)" x2="0" y2="6" style="fill: none; stroke: #000; stroke-width: 1; opacity: 1;"></line><line transform="translate(33.5,0)" x2="0" y2="6" style="fill: none; stroke: #000; stroke-width: 1; opacity: 1;"></line><line transform="translate(67.5,0)" x2="0" y2="6" style="fill: none; stroke: #000; stroke-width: 1; opacity: 1;"></line><line transform="translate(100.5,0)" x2="0" y2="6" style="fill: none; stroke: #000; stroke-width: 1; opacity: 1;"></line><line transform="translate(133.5,0)" x2="0" y2="6" style="fill: none; stroke: #000; stroke-width: 1; opacity: 1;"></line><line transform="translate(167.5,0)" x2="0" y2="6" style="fill: none; stroke: #000; stroke-width: 1; opacity: 1;"></line><line transform="translate(200.5,0)" x2="0" y2="6" style="fill: none; stroke: #000; stroke-width: 1; opacity: 1;"></line></g><g class="mark-rule" style="pointer-events: none;"></g><g class="mark-text"><text text-anchor="middle" transform="translate(0.5,19)" style="font: 11px sans-serif; fill: #000; opacity: 1;">-20</text><text text-anchor="middle" transform="translate(33.5,19)" style="font: 11px sans-serif; fill: #000; opacity: 1;">-10</text><text text-anchor="middle" transform="translate(67.5,19)" style="font: 11px sans-serif; fill: #000; opacity: 1;">0</text><text text-anchor="middle" transform="translate(100.5,19)" style="font: 11px sans-serif; fill: #000; opacity: 1;">10</text><text text-anchor="middle" transform="translate(133.5,19)" style="font: 11px sans-serif; fill: #000; opacity: 1;">20</text><text text-anchor="middle" transform="translate(167.5,19)" style="font: 11px sans-serif; fill: #000; opacity: 1;">30</text><text text-anchor="middle" transform="translate(200.5,19)" style="font: 11px sans-serif; fill: #000; opacity: 1;">40</text></g><g class="mark-path" style="pointer-events: none;"><path transform="translate(0.5,0.5)" d="M0,6V0H200V6" style="fill: none; stroke: #000; stroke-width: 1;"></path></g><g class="mark-text"><text text-anchor="middle" transform="translate(100,35)" style="font: bold 11px sans-serif; fill: #000;">(state)</text></g></g></g><g class="mark-group"><g transform="translate(0,0)"><rect class="background" width="0" height="0" style="pointer-events: none; fill: none;"></rect><g class="mark-rule" style="pointer-events: none;"><line transform="translate(0,200.5)" x2="200" y2="0" style="fill: none; stroke: #000; stroke-opacity: 0.15; opacity: 1;"></line><line transform="translate(0,178.5)" x2="200" y2="0" style="fill: none; stroke: #000; stroke-opacity: 0.15; opacity: 1;"></line><line transform="translate(0,156.5)" x2="200" y2="0" style="fill: none; stroke: #000; stroke-opacity: 0.15; opacity: 1;"></line><line transform="translate(0,133.5)" x2="200" y2="0" style="fill: none; stroke: #000; stroke-opacity: 0.15; opacity: 1;"></line><line transform="translate(0,111.5)" x2="200" y2="0" style="fill: none; stroke: #000; stroke-opacity: 0.15; opacity: 1;"></line><line transform="translate(0,89.5)" x2="200" y2="0" style="fill: none; stroke: #000; stroke-opacity: 0.15; opacity: 1;"></line><line transform="translate(0,67.5)" x2="200" y2="0" style="fill: none; stroke: #000; stroke-opacity: 0.15; opacity: 1;"></line><line transform="translate(0,44.5)" x2="200" y2="0" style="fill: none; stroke: #000; stroke-opacity: 0.15; opacity: 1;"></line><line transform="translate(0,22.5)" x2="200" y2="0" style="fill: none; stroke: #000; stroke-opacity: 0.15; opacity: 1;"></line><line transform="translate(0,0.5)" x2="200" y2="0" style="fill: none; stroke: #000; stroke-opacity: 0.15; opacity: 1;"></line></g><g class="mark-rule" style="pointer-events: none;"><line transform="translate(-6,200.5)" x2="6" y2="0" style="fill: none; stroke: #000; stroke-width: 1; opacity: 1;"></line><line transform="translate(-6,178.5)" x2="6" y2="0" style="fill: none; stroke: #000; stroke-width: 1; opacity: 1;"></line><line transform="translate(-6,156.5)" x2="6" y2="0" style="fill: none; stroke: #000; stroke-width: 1; opacity: 1;"></line><line transform="translate(-6,133.5)" x2="6" y2="0" style="fill: none; stroke: #000; stroke-width: 1; opacity: 1;"></line><line transform="translate(-6,111.5)" x2="6" y2="0" style="fill: none; stroke: #000; stroke-width: 1; opacity: 1;"></line><line transform="translate(-6,89.5)" x2="6" y2="0" style="fill: none; stroke: #000; stroke-width: 1; opacity: 1;"></line><line transform="translate(-6,67.5)" x2="6" y2="0" style="fill: none; stroke: #000; stroke-width: 1; opacity: 1;"></line><line transform="translate(-6,44.5)" x2="6" y2="0" style="fill: none; stroke: #000; stroke-width: 1; opacity: 1;"></line><line transform="translate(-6,22.5)" x2="6" y2="0" style="fill: none; stroke: #000; stroke-width: 1; opacity: 1;"></line><line transform="translate(-6,0.5)" x2="6" y2="0" style="fill: none; stroke: #000; stroke-width: 1; opacity: 1;"></line></g><g class="mark-rule" style="pointer-events: none;"></g><g class="mark-text"><text text-anchor="end" transform="translate(-9,203.5)" style="font: 11px sans-serif; fill: #000; opacity: 1;">0.0</text><text text-anchor="end" transform="translate(-9,181.5)" style="font: 11px sans-serif; fill: #000; opacity: 1;">0.0050</text><text text-anchor="end" transform="translate(-9,159.5)" style="font: 11px sans-serif; fill: #000; opacity: 1;">0.010</text><text text-anchor="end" transform="translate(-9,136.5)" style="font: 11px sans-serif; fill: #000; opacity: 1;">0.015</text><text text-anchor="end" transform="translate(-9,114.5)" style="font: 11px sans-serif; fill: #000; opacity: 1;">0.020</text><text text-anchor="end" transform="translate(-9,92.5)" style="font: 11px sans-serif; fill: #000; opacity: 1;">0.025</text><text text-anchor="end" transform="translate(-9,70.5)" style="font: 11px sans-serif; fill: #000; opacity: 1;">0.030</text><text text-anchor="end" transform="translate(-9,47.5)" style="font: 11px sans-serif; fill: #000; opacity: 1;">0.035</text><text text-anchor="end" transform="translate(-9,25.5)" style="font: 11px sans-serif; fill: #000; opacity: 1;">0.040</text><text text-anchor="end" transform="translate(-9,3.5)" style="font: 11px sans-serif; fill: #000; opacity: 1;">0.045</text></g><g class="mark-path" style="pointer-events: none;"><path transform="translate(0.5,0.5)" d="M-6,0H0V200H-6" style="fill: none; stroke: #000; stroke-width: 1;"></path></g><g class="mark-text"><text text-anchor="middle" transform="translate(-54,100) rotate(-90) translate(0,3)" style="font: bold 11px sans-serif; fill: #000;">density</text></g></g></g><g class="mark-line marks"><path d="M195,200L193,200L191,200L189,200L187,200L185,199L184,199L182,200L180,199L178,199L176,198L174,198L172,197L170,195L168,193L166,192L164,191L162,189L160,188L158,188L156,186L154,183L153,181L151,179L149,175L147,170L145,165L143,164L141,163L139,157L137,146L135,134L133,118L131,100L129,89L127,87L125,84L123,73L121,60L120,48L118,36L116,23L114,12L112,7L110,7L108,12L106,11L104,10L102,12L100,19L98,24L96,21L94,21L92,26L90,39L88,40L87,41L85,38L83,37L81,39L79,48L77,56L75,58L73,53L71,47L69,47L67,50L65,49L63,47L61,47L59,46L57,52L55,58L54,72L52,88L50,107L48,119L46,131L44,144L42,154L40,163L38,171L36,179L34,185L32,189L30,190L28,191L26,193L24,195L22,197L21,198L19,198L17,197L15,197L13,198L11,198L9,198L7,198L5,198L3,199L1,199" style="fill: none; stroke: #4682b4; stroke-width: 2;"></path></g></g></g></g></g></g></svg>