<svg class="marks" width="285" height="255" version="1.1" xmlns="http://www.w3.org/2000/svg" xmlns:xlink="http://www.w3.org/1999/xlink"><g transform="translate(78,12)"><g class="mark-group"><g transform="translate(0,0)"><rect class="background" width="1" height="1" style="fill: none;"></rect><g class="mark-group root"><g transform="translate(0,0)"><rect class="background" width="200" height="200" style="fill: none;"></rect><g class="mark-group"><g transform="translate(0,200)"><rect class="background" width="0" height="0" style="pointer-events: none; fill: none;"></rect><g class="mark-rule" style="pointer-events: none;"><line transform="translate(25.5,-200)" x2="0" y2="200" style="fill: none; stroke: #000; stroke-opacity: 0.15; opacity: 1;"></line><line transform="translate(67.5,-200)" x2="0" y2="200" style="fill: none; stroke: #000; stroke-opacity: 0.15; opacity: 1;"></line><line transform="translate(108.5,-200)" x2="0" y2="200" style="fill: none; stroke: #000; stroke-opacity: 0.15; opacity: 1;"></line><line transform="translate(150.5,-200)" x2="0" y2="200" style="fill: none; stroke: #000; stroke-opacity: 0.15; opacity: 1;"></line><line transform="translate(192.5,-200)" x2="0" y2="200" style="fill: none; stroke: #000; stroke-opacity: 0.15; opacity: 1;"></line></g><g class="mark-rule" style="pointer-events: none;"><line transform="translate(25.5,0)" x2="0" y2="6" style="fill: none; stroke: #000; stroke-width: 1; opacity: 1;"></line><line transform="translate(67.5,0)" x2="0" y2="6" style="fill: none; stroke: #000; stroke-width: 1; opacity: 1;"></line><line transform="translate(108.5,0)" x2="0" y2="6" style="fill: none; stroke: #000; stroke-width: 1; opacity: 1;"></line><line transform="translate(150.5,0)" x2="0" y2="6" style="fill: none; stroke: #000; stroke-width: 1; opacity: 1;"></line><line transform="translate(192.5,0)" x2="0" y2="6" style="fill: none; stroke: #000; stroke-width: 1; opacity: 1;"></line></g><g class="mark-rule" style="pointer-events: none;"></g><g class="mark-text"><text text-anchor="middle" transform="translate(25.5,19)" style="font: 11px sans-serif; fill: #000; opacity: 1;">15</text><text text-anchor="middle" transform="translate(67.5,19)" style="font: 11px sans-serif; fill: #000; opacity: 1;">20</text><text text-anchor="middle" transform="translate(108.5,19)" style="font: 11px sans-serif; fill: #000; opacity: 1;">25</text><text text-anchor="middle" transform="translate(150.5,19)" style="font: 11px sans-serif; fill: #000; opacity: 1;">30</text><text text-anchor="middle" transform="translate(192.5,19)" style="font: 11px sans-serif; fill: #000; opacity: 1;">35</text></g><g class="mark-path" style="pointer-events: none;"><path transform="translate(0.5,0.5)" d="M0,6V0H200V6" style="fill: none; stroke: #000; stroke-width: 1;"></path></g><g class="mark-text"><text text-anchor="middle" transform="translate(100,35)" style="font: bold 11px sans-serif; fill: #000;">(state)</text></g></g></g><g class="mark-group"><g transform="translate(0,0)"><rect class="background" width="0" height="0" style="pointer-events: none; fill: none;"></rect><g class="mark-rule" style="pointer-events: none;"><line transform="translate(0,200.5)" x2="200" y2="0" style="fill: none; stroke: #000; stroke-opacity: 0.15; opacity: 1;"></line><line transform="translate(0,180.5)" x2="200" y2="0" style="fill: none; stroke: #000; stroke-opacity: 0.15; opacity: 1;"></line><line transform="translate(0,160.5)" x2="200" y2="0" style="fill: none; stroke: #000; stroke-opacity: 0.15; opacity: 1;"></line><line transform="translate(0,140.5)" x2="200" y2="0" style="fill: none; stroke: #000; stroke-opacity: 0.15; opacity: 1;"></line><line transform="translate(0,120.5)" x2="200" y2="0" style="fill: none; stroke: #000; stroke-opacity: 0.15; opacity: 1;"></line><line transform="translate(0,100.5)" x2="200" y2="0" style="fill: none; stroke: #000; stroke-opacity: 0.15; opacity: 1;"></line><line transform="translate(0,80.5)" x2="200" y2="0" style="fill: none; stroke: #000; stroke-opacity: 0.15; opacity: 1;"></line><line transform="translate(0,60.5)" x2="200" y2="0" style="fill: none; stroke: #000; stroke-opacity: 0.15; opacity: 1;"></line><line transform="translate(0,40.5)" x2="200" y2="0" style="fill: none; stroke: #000; stroke-opacity: 0.15; opacity: 1;"></line><line transform="translate(0,20.5)" x2="200" y2="0" style="fill: none; stroke: #000; stroke-opacity: 0.15; opacity: 1;"></line><line transform="translate(0,0.5)" x2="200" y2="0" style="fill: none; stroke: #000; stroke-opacity: 0.15; opacity: 1;"></line></g><g class="mark-rule" style="pointer-events: none;"><line transform="translate(-6,200.5)" x2="6" y2="0" style="fill: none; stroke: #000; stroke-width: 1; opacity: 1;"></line><line transform="translate(-6,180.5)" x2="6" y2="0" style="fill: none; stroke: #000; stroke-width: 1; opacity: 1;"></line><line transform="translate(-6,160.5)" x2="6" y2="0" style="fill: none; stroke: #000; stroke-width: 1; opacity: 1;"></line><line transform="translate(-6,140.5)" x2="6" y2="0" style="fill: none; stroke: #000; stroke-width: 1; opacity: 1;"></line><line transform="translate(-6,120.5)" x2="6" y2="0" style="fill: none; stroke: #000; stroke-width: 1; opacity: 1;"></line><line transform="translate(-6,100.5)" x2="6" y2="0" style="fill: none; stroke: #000; stroke-width: 1; opacity: 1;"></line><line transform="translate(-6,80.5)" x2="6" y2="0" style="fill: none; stroke: #000; stroke-width: 1; opacity: 1;"></line><line transform="translate(-6,60.5)" x2="6" y2="0" style="fill: none; stroke: #000; stroke-width: 1; opacity: 1;"></line><line transform="translate(-6,40.5)" x2="6" y2="0" style="fill: none; stroke: #000; stroke-width: 1; opacity: 1;"></line><line transform="translate(-6,20.5)" x2="6" y2="0" style="fill: none; stroke: #000; stroke-width: 1; opacity: 1;"></line><line transform="translate(-6,0.5)" x2="6" y2="0" style="fill: none; stroke: #000; stroke-width: 1; opacity: 1;"></line></g><g class="mark-rule" style="pointer-events: none;"></g><g class="mark-text"><text text-anchor="end" transform="translate(-9,203.5)" style="font: 11px sans-serif; fill: #000; opacity: 1;">0.000</text><text text-anchor="end" transform="translate(-9,183.5)" style="font: 11px sans-serif; fill: #000; opacity: 1;">0.005000</text><text text-anchor="end" transform="translate(-9,163.5)" style="font: 11px sans-serif; fill: #000; opacity: 1;">0.01000</text><text text-anchor="end" transform="translate(-9,143.5)" style="font: 11px sans-serif; fill: #000; opacity: 1;">0.01500</text><text text-anchor="end" transform="translate(-9,123.5)" style="font: 11px sans-serif; fill: #000; opacity: 1;">0.02000</text><text text-anchor="end" transform="translate(-9,103.5)" style="font: 11px sans-serif; fill: #000; opacity: 1;">0.02500</text><text text-anchor="end" transform="translate(-9,83.5)" style="font: 11px sans-serif; fill: #000; opacity: 1;">0.03000</text><text text-anchor="end" transform="translate(-9,63.5)" style="font: 11px sans-serif; fill: #000; opacity: 1;">0.03500</text><text text-anchor="end" transform="translate(-9,43.5)" style="font: 11px sans-serif; fill: #000; opacity: 1;">0.04000</text><text text-anchor="end" transform="translate(-9,23.5)" style="font: 11px sans-serif; fill: #000; opacity: 1;">0.04500</text><text text-anchor="end" transform="translate(-9,3.5)" style="font: 11px sans-serif; fill: #000; opacity: 1;">0.05000</text></g><g class="mark-path" style="pointer-events: none;"><path transform="translate(0.5,0.5)" d="M-6,0H0V200H-6" style="fill: none; stroke: #000; stroke-width: 1;"></path></g><g class="mark-text"><text text-anchor="middle" transform="translate(-66,100) rotate(-90) translate(0,3)" style="font: bold 11px sans-serif; fill: #000;">density</text></g></g></g><g class="mark-line marks"><path d="M200,119L198,101L196,82L194,65L192,48L190,37L188,33L186,31L184,33L182,35L180,36L178,37L176,42L174,48L172,52L170,56L168,61L166,62L164,61L162,60L160,58L158,56L156,57L154,59L152,63L150,62L148,57L146,52L144,48L142,45L140,41L138,35L136,27L134,18L132,13L130,14L128,17L126,20L124,21L122,22L120,23L118,24L116,26L114,29L112,31L110,28L108,26L106,26L104,27L102,28L100,30L98,32L96,32L94,32L92,34L90,35L88,35L86,35L84,35L82,34L80,30L78,27L76,26L74,28L72,30L70,30L68,28L66,23L64,19L62,18L60,19L58,22L56,21L54,19L52,18L50,17L48,20L46,26L44,33L42,34L40,34L38,33L36,35L34,36L32,36L30,36L28,33L26,30L24,27L22,25L20,22L18,22L16,20L14,22L12,23L10,30L8,41L6,57L4,77L2,97L0,118" style="fill: none; stroke: #4682b4; stroke-width: 2;"></path></g></g></g></g></g></g></svg>